<svg width="16" height="16" viewBox="0 0 16 16" fill="none" xmlns="http://www.w3.org/2000/svg">
<path d="M5.92001 14.5999C6.50501 14.8349 7.14001 14.9749 7.81001 14.9999C8.71501 15.0299 9.57001 14.8449 10.34 14.4899C9.42001 14.1299 8.58501 13.5999 7.87501 12.9399C7.41115 13.6806 6.73023 14.2603 5.92501 14.5999H5.92001Z" fill="#FF9100"/>
<path d="M7.87001 12.94C6.24501 11.44 5.26001 9.265 5.34501 6.88C5.34501 6.805 5.35001 6.725 5.35501 6.65C4.63378 6.46598 3.87686 6.4746 3.16001 6.675C2.72501 7.435 2.46501 8.305 2.43001 9.24C2.34501 11.65 3.80501 13.755 5.92001 14.605C6.7275 14.269 7.40943 13.6885 7.87001 12.945V12.94Z" fill="#FFC400"/>
<path d="M7.87001 12.94C8.25978 12.3159 8.47876 11.6004 8.50501 10.865C8.57501 8.85502 7.22501 7.13002 5.35501 6.64502C5.35501 6.72002 5.34501 6.80002 5.34501 6.87502C5.30318 8.00756 5.50723 9.13571 5.94312 10.1818C6.37901 11.228 7.03639 12.1672 7.87001 12.935V12.94Z" fill="#FF9100"/>
<path d="M8.29501 1C7.23001 1.85 6.39001 2.975 5.88001 4.27C5.58189 5.02934 5.40474 5.83075 5.35501 6.645C6.28208 6.88464 7.09961 7.43351 7.67239 8.20086C8.24517 8.9682 8.5389 9.90805 8.50501 10.865C8.48184 11.6009 8.26263 12.3172 7.87001 12.94C8.58854 13.6049 9.4244 14.1305 10.335 14.49C12.185 13.635 13.495 11.8 13.57 9.625C13.62 8.215 13.08 6.96 12.315 5.9C11.505 4.78 8.29501 1.005 8.29501 1.005V1Z" fill="#DD2C00"/>
</svg>
