<svg width="128" height="115" viewBox="0 0 128 115" fill="none" xmlns="http://www.w3.org/2000/svg">
<g clip-path="url(#clip0_183_263)">
<path d="M78.99 71.2435L76.535 75.507C76.1715 76.1379 75.6482 76.6618 75.0178 77.0262C74.3874 77.3906 73.6721 77.5824 72.944 77.5825H54.135C53.4069 77.5824 52.6916 77.3906 52.0612 77.0262C51.4308 76.6618 50.9075 76.1379 50.544 75.507L48.0885 71.2435H78.99ZM85.8635 59.3085L81.5345 66.8255H45.5445L41.2155 59.3085H85.8635ZM81.6935 47.6375L85.8705 54.8905H41.2085L45.3855 47.6375H81.6935ZM72.9435 36.6045C73.6717 36.6045 74.3871 36.7963 75.0176 37.1607C75.648 37.525 76.1714 38.049 76.535 38.68L79.149 43.2195H47.93L50.5445 38.68C50.908 38.0491 51.4313 37.5251 52.0617 37.1608C52.6921 36.7964 53.4074 36.6046 54.1355 36.6045H72.9435Z" fill="#00435B"/>
<path d="M26.7615 34.6259C24.678 24.5229 24.2305 16.7739 25.5775 11.1474C26.3785 7.80088 27.8425 5.07088 30.0695 3.10088C32.4205 1.02138 35.3925 0.00087867 38.7325 0.00087867C44.2415 0.00087867 50.0335 2.51338 56.2225 7.28588C58.7475 9.23288 61.3675 11.5794 64.0885 14.3269C64.3055 14.0484 64.55 13.7854 64.823 13.5419C72.516 6.68688 78.993 2.42688 84.533 0.784879C87.827 -0.192121 90.9195 -0.285121 93.7355 0.662879C96.7085 1.66288 99.077 3.73138 100.748 6.62788C103.506 11.4084 104.233 17.6899 103.205 25.4464C102.786 28.6079 102.07 32.0514 101.057 35.7829C101.439 35.8289 101.822 35.9139 102.201 36.0394C111.962 39.2744 118.874 42.7524 123.058 46.7279C125.548 49.0929 127.174 51.7259 127.762 54.6409C128.382 57.7174 127.777 60.8029 126.108 63.6974C123.355 68.4714 118.293 72.2359 111.082 75.2179C108.187 76.4154 104.91 77.4999 101.25 78.4754C101.417 78.8524 101.547 79.2529 101.633 79.6729C103.717 89.7759 104.164 97.5249 102.817 103.151C102.016 106.498 100.552 109.228 98.325 111.198C95.9745 113.277 93.002 114.298 89.6625 114.298C84.153 114.298 78.3615 111.785 72.1725 107.013C69.6205 105.045 66.9715 102.669 64.219 99.8839C63.9294 100.337 63.5787 100.748 63.177 101.105C55.484 107.961 49.007 112.22 43.467 113.862C40.173 114.839 37.0805 114.932 34.2645 113.984C31.2915 112.984 28.923 110.916 27.2515 108.019C24.4935 103.239 23.7665 96.9574 24.7945 89.2009C25.229 85.9254 25.9825 82.3464 27.0535 78.4584C26.6265 78.4152 26.2057 78.3251 25.7985 78.1899C16.038 74.9549 9.12596 71.4769 4.94146 67.5014C2.45146 65.1364 0.825962 62.5034 0.237962 59.5884C-0.382038 56.5119 0.222962 53.4259 1.89196 50.5314C4.64496 45.7579 9.70696 41.9929 16.918 39.0114C19.8995 37.7779 23.285 36.6649 27.078 35.6669C26.9412 35.3302 26.8352 34.9817 26.7615 34.6259Z" fill="#002B3B"/>
<path d="M94.8235 80.6664C95.2893 80.5839 95.7691 80.6837 96.1633 80.9453C96.5575 81.2069 96.836 81.6101 96.941 82.0714L96.9525 82.1274L97.056 82.6649C100.411 100.303 98.0477 109.122 89.966 109.122C82.0593 109.122 71.994 101.597 59.77 86.5459C59.5528 86.2784 59.415 85.9554 59.3723 85.6135C59.3295 85.2716 59.3836 84.9245 59.5282 84.6118C59.6728 84.2991 59.9022 84.0332 60.1904 83.8443C60.4786 83.6554 60.814 83.5512 61.1585 83.5434H61.2155L61.8595 83.5479C67.0035 83.5759 72.0042 83.3966 76.8615 83.0099C82.5948 82.5533 88.5822 81.7721 94.8235 80.6664ZM39.323 67.3334L39.354 67.3859L39.677 67.9494C42.2653 72.4494 44.962 76.7206 47.767 80.7629C51.071 85.5229 54.786 90.3419 58.912 95.2199C59.2182 95.5819 59.3731 96.0481 59.3443 96.5214C59.3155 96.9947 59.1053 97.4387 58.7575 97.7609L58.711 97.8024L58.296 98.1599C44.6427 109.859 35.7687 112.194 31.674 105.166C27.6657 98.2873 29.1188 85.7794 36.0335 67.6424C36.1559 67.3211 36.3659 67.0405 36.6396 66.8323C36.9132 66.6241 37.2398 66.4968 37.5821 66.4646C37.9245 66.4324 38.269 66.4968 38.5767 66.6503C38.8843 66.8039 39.1429 67.0405 39.323 67.3334ZM101.751 41.3064L101.807 41.3249L102.321 41.5019C119.174 47.3646 125.576 53.8071 121.529 60.8294C117.571 67.6978 106.065 72.6984 87.009 75.8314C86.6636 75.8883 86.3092 75.8455 85.9873 75.7082C85.6654 75.5709 85.3892 75.3446 85.1913 75.056C84.9933 74.7673 84.8817 74.4282 84.8695 74.0785C84.8573 73.7287 84.9451 73.3826 85.1225 73.0809C87.8518 68.4383 90.31 63.8188 92.497 59.2224C94.977 54.0098 97.3045 48.4148 99.4795 42.4374C99.6375 42.003 99.9531 41.6438 100.364 41.4312C100.774 41.2187 101.25 41.1682 101.695 41.2899L101.751 41.3064ZM42.223 38.3549C42.4316 38.4774 42.614 38.6398 42.7598 38.8328C42.9056 39.0258 43.0119 39.2456 43.0727 39.4797C43.1336 39.7138 43.1477 39.9576 43.1142 40.1972C43.0808 40.4368 43.0006 40.6674 42.878 40.8759C40.148 45.5183 37.6897 50.1378 35.503 54.7344C33.023 59.9468 30.6955 65.5418 28.5205 71.5194C28.359 71.9633 28.0332 72.3282 27.6104 72.5386C27.1875 72.7491 26.7 72.7891 26.2485 72.6504L26.1925 72.6319L25.6785 72.4544C8.82616 66.5921 2.42349 60.1498 6.47049 53.1274C10.4285 46.2591 21.9353 41.2583 40.991 38.1249C41.416 38.0549 41.852 38.1364 42.223 38.3549ZM96.326 9.48042C100.334 16.3594 98.8812 28.8674 91.9665 47.0044C91.8441 47.3258 91.6341 47.6064 91.3604 47.8146C91.0867 48.0227 90.7602 48.1501 90.4179 48.1823C90.0755 48.2144 89.731 48.1501 89.4233 47.9965C89.1156 47.843 88.8571 47.6063 88.677 47.3134L88.646 47.2609L88.323 46.6974C85.7347 42.1974 83.038 37.9263 80.233 33.8839C76.929 29.1239 73.214 24.3049 69.088 19.4269C68.7817 19.0649 68.6269 18.5987 68.6557 18.1254C68.6844 17.6521 68.8946 17.2082 69.2425 16.8859L69.289 16.8444L69.704 16.4869C83.3573 4.78859 92.2313 2.45309 96.326 9.48042ZM38.725 5.29492C46.632 5.29492 56.6973 12.8203 68.921 27.8709C69.1382 28.1384 69.2759 28.4615 69.3187 28.8034C69.3614 29.1453 69.3074 29.4923 69.1628 29.805C69.0182 30.1178 68.7887 30.3837 68.5005 30.5725C68.2123 30.7614 67.877 30.8656 67.5325 30.8734H67.4755L66.8315 30.8694C61.6878 30.8414 56.6873 31.0208 51.83 31.4074C46.096 31.8641 40.1085 32.6453 33.8675 33.7509C33.4017 33.8333 32.9221 33.7334 32.528 33.4718C32.1339 33.2103 31.8555 32.8071 31.7505 32.3459L31.7385 32.2894L31.635 31.7524C28.2797 14.1141 30.643 5.29492 38.725 5.29492Z" fill="#FF4154"/>
<path d="M55.6475 36.835H71.4355C72.5698 36.8349 73.6841 37.1342 74.6657 37.7027C75.6473 38.2711 76.4615 39.0886 77.026 40.0725L84.9535 53.8855C85.514 54.8619 85.8089 55.9681 85.8089 57.094C85.8089 58.2198 85.514 59.326 84.9535 60.3025L77.026 74.1155C76.4615 75.0993 75.6473 75.9168 74.6657 76.4852C73.6841 77.0537 72.5698 77.353 71.4355 77.353H55.6475C53.3385 77.353 51.206 76.118 50.0565 74.1155L42.13 60.3025C41.5695 59.326 41.2746 58.2198 41.2746 57.094C41.2746 55.9681 41.5695 54.8619 42.13 53.8855L50.057 40.0725C50.6216 39.0885 51.4358 38.271 52.4175 37.7026C53.3993 37.1341 54.5131 36.8348 55.6475 36.835ZM69.0295 41.004C71.3395 41.004 73.4735 42.2405 74.622 44.2445L80.15 53.8885C80.7094 54.8642 81.0037 55.9693 81.0037 57.094C81.0037 58.2186 80.7094 59.3238 80.15 60.2995L74.622 69.9435C74.0576 70.9281 73.2433 71.7462 72.2613 72.3152C71.2792 72.8841 70.1644 73.1836 69.0295 73.1835H58.0545C55.7445 73.1835 53.6105 71.9475 52.462 69.9435L46.934 60.2995C46.3746 59.3238 46.0803 58.2186 46.0803 57.094C46.0803 55.9693 46.3746 54.8642 46.934 53.8885L52.462 44.2445C53.0263 43.2599 53.8406 42.4418 54.8225 41.8729C55.8045 41.304 56.9192 41.0044 58.054 41.0045L69.0295 41.004ZM66.436 45.564H60.648C59.5141 45.5638 58.4002 45.8629 57.4188 46.4308C56.4374 46.9988 55.6233 47.8157 55.0585 48.799L52.1375 53.8825C51.5759 54.8596 51.2804 55.9669 51.2804 57.094C51.2804 58.221 51.5759 59.3283 52.1375 60.3055L55.0585 65.3895C55.6233 66.3727 56.4374 67.1896 57.4188 67.7576C58.4002 68.3256 59.5141 68.6246 60.648 68.6245H66.436C68.744 68.6245 70.876 67.3905 72.0255 65.3895L74.9465 60.3055C75.5081 59.3283 75.8036 58.221 75.8036 57.094C75.8036 55.9669 75.5081 54.8596 74.9465 53.8825L72.0255 48.7985C71.4608 47.8152 70.6466 46.9983 69.6652 46.4303C68.6838 45.8623 67.5699 45.5638 66.436 45.564ZM63.939 49.928C66.245 49.928 68.3755 51.16 69.5255 53.158L69.94 53.878C70.5031 54.8561 70.7994 55.9649 70.7994 57.0935C70.7994 58.2221 70.5031 59.3309 69.94 60.309L69.5255 61.029C68.9604 62.0109 68.1464 62.8264 67.1656 63.3935C66.1848 63.9606 65.0719 64.2591 63.939 64.259H63.145C62.0121 64.2591 60.8992 63.9606 59.9184 63.3935C58.9376 62.8264 58.1236 62.0109 57.5585 61.029L57.144 60.309C56.5809 59.3309 56.2846 58.2221 56.2846 57.0935C56.2846 55.9649 56.5809 54.8561 57.144 53.878L57.5585 53.158C58.1236 52.1761 58.9376 51.3605 59.9184 50.7934C60.8992 50.2264 62.0121 49.9279 63.145 49.928H63.939ZM63.543 54.2275C63.0395 54.2273 62.5448 54.3597 62.1086 54.6112C61.6725 54.8628 61.3101 55.2246 61.058 55.6605C60.8064 56.0961 60.6739 56.5904 60.6739 57.0935C60.6739 57.5966 60.8064 58.0908 61.058 58.5265C61.3099 58.9624 61.672 59.3244 62.1081 59.5761C62.5442 59.8278 63.0388 59.9603 63.5423 59.9603C64.0457 59.9603 64.5404 59.8278 64.9764 59.5761C65.4125 59.3244 65.7747 58.9624 66.0265 58.5265C66.2782 58.0908 66.4106 57.5966 66.4106 57.0935C66.4106 56.5904 66.2782 56.0961 66.0265 55.6605C65.7745 55.2248 65.4124 54.8631 64.9765 54.6116C64.5406 54.3601 64.0463 54.2276 63.543 54.2275ZM40.2885 57.0935H45.4485Z" fill="#FFD94C"/>
</g>
<defs>
<clipPath id="clip0_183_263">
<rect width="128" height="115" fill="white"/>
</clipPath>
</defs>
</svg>
