<svg width="16" height="16" viewBox="0 0 16 16" fill="none" xmlns="http://www.w3.org/2000/svg">
<path d="M8 9.23706C8.69036 9.23706 9.25 8.67742 9.25 7.98706C9.25 7.2967 8.69036 6.73706 8 6.73706C7.30964 6.73706 6.75 7.2967 6.75 7.98706C6.75 8.67742 7.30964 9.23706 8 9.23706Z" fill="#00D8FF"/>
<path d="M8 10.8531C6.49757 10.8893 4.99892 10.6868 3.56 10.2531C2.89531 10.0424 2.27537 9.71045 1.7315 9.27408C1.52389 9.12508 1.35101 8.93289 1.22474 8.71073C1.09847 8.48856 1.0218 8.24169 1 7.98708C1 7.16058 1.908 6.35058 3.429 5.82058C4.90646 5.35134 6.44999 5.12375 8 5.14658C9.52934 5.12544 11.0522 5.34892 12.511 5.80858C13.151 6.01289 13.7499 6.32876 14.28 6.74158C14.4838 6.88393 14.6538 7.06922 14.7782 7.28442C14.9026 7.49961 14.9783 7.73946 15 7.98708C15 8.84608 13.985 9.71658 12.35 10.2576C10.939 10.6773 9.47192 10.8781 8 10.8531ZM8 5.74458C6.51709 5.7252 5.04051 5.94157 3.6255 6.38558C2.2255 6.87408 1.598 7.54208 1.598 7.98558C1.598 8.44958 2.2725 9.17908 3.7535 9.68558C5.13002 10.0986 6.5633 10.2908 8 10.2551C9.4082 10.2803 10.812 10.0897 12.1625 9.69008C13.7 9.18058 14.4 8.45008 14.4 7.98708C14.3747 7.82822 14.3167 7.67633 14.2298 7.54097C14.1429 7.40561 14.0289 7.28971 13.895 7.20058C13.4208 6.83421 12.8858 6.55426 12.3145 6.37358C10.9189 5.93578 9.46247 5.72344 8 5.74458Z" fill="#00D8FF"/>
<path d="M5.15999 14.2215C4.92674 14.2268 4.69625 14.1702 4.49199 14.0575C3.77599 13.6445 3.52799 12.4535 3.82849 10.871C4.16019 9.35667 4.73424 7.90583 5.52849 6.57451C6.27402 5.23917 7.22823 4.0316 8.35499 2.99751C8.85172 2.54506 9.42454 2.184 10.047 1.93101C10.2723 1.82578 10.5179 1.77124 10.7665 1.77124C11.0151 1.77124 11.2607 1.82578 11.486 1.93101C12.2305 2.36001 12.477 3.67401 12.1295 5.36051C11.788 6.7928 11.2288 8.16425 10.4715 9.42701C9.75225 10.7466 8.82808 11.9437 7.73349 12.9735C7.21888 13.4439 6.62166 13.815 5.97199 14.068C5.71197 14.1648 5.43739 14.2167 5.15999 14.2215ZM6.04649 6.87151C5.28893 8.14637 4.73874 9.53349 4.41649 10.981C4.13999 12.4385 4.40549 13.315 4.79149 13.538C5.19149 13.7695 6.16249 13.55 7.34149 12.52C8.38656 11.5335 9.26867 10.3877 9.95499 9.12501C10.6805 7.91777 11.2168 6.60658 11.5455 5.23701C11.8725 3.64951 11.59 2.67751 11.189 2.44651C11.0387 2.38901 10.8781 2.36328 10.7173 2.37094C10.5566 2.3786 10.3992 2.41948 10.255 2.49101C9.70086 2.71974 9.19139 3.04437 8.74999 3.45001C7.67355 4.44061 6.76209 5.59665 6.04999 6.87451L6.04649 6.87151Z" fill="#00D8FF"/>
<path d="M10.8385 14.228C10.161 14.228 9.30049 13.818 8.40449 13.0475C7.25813 12.0039 6.28781 10.782 5.53099 9.42899C4.74655 8.11608 4.17703 6.6862 3.84399 5.19349C3.6999 4.5367 3.67316 3.8596 3.76499 3.19349C3.78659 2.94647 3.86196 2.70716 3.98581 2.49235C4.10967 2.27754 4.27903 2.09243 4.48199 1.94999C5.22549 1.51949 6.48699 1.96199 7.77449 3.10499C8.84479 4.11608 9.75369 5.28534 10.4695 6.57199C11.2535 7.85422 11.829 9.2528 12.1745 10.7155C12.3251 11.3963 12.3483 12.0992 12.243 12.7885C12.218 13.0427 12.1384 13.2885 12.0094 13.5091C11.8805 13.7296 11.7053 13.9196 11.496 14.066C11.295 14.1771 11.0681 14.233 10.8385 14.228ZM6.04849 9.12799C6.77457 10.421 7.70146 11.5904 8.7945 12.5925C9.919 13.56 10.811 13.768 11.1945 13.5425C11.5945 13.31 11.8895 12.361 11.5855 10.8255C11.2525 9.42893 10.7005 8.0939 9.94999 6.86999C9.26691 5.63855 8.39937 4.51892 7.37749 3.54999C6.16549 2.47399 5.18249 2.23349 4.78199 2.46549C4.65724 2.56699 4.55484 2.69323 4.48127 2.83625C4.40769 2.97926 4.36453 3.13597 4.35449 3.29649C4.27506 3.89054 4.30096 4.49393 4.43099 5.07899C4.75143 6.50647 5.29764 7.87366 6.04899 9.12899L6.04849 9.12799Z" fill="#00D8FF"/>
</svg>
