<svg width="16" height="16" viewBox="0 0 16 16" fill="none" xmlns="http://www.w3.org/2000/svg">
<path d="M12.38 6.28939C11.9242 6.14589 11.689 6.19426 11.2111 6.14189C10.4724 6.06126 10.178 5.77201 10.0531 5.02776C9.98324 4.61226 10.0657 4.00389 9.88736 3.62726C9.54624 2.90901 8.74799 2.58689 7.94611 2.77076C7.26899 2.92626 6.70561 3.60401 6.67436 4.29976C6.63874 5.09414 7.09061 5.77201 7.86649 6.00601C8.23524 6.11726 8.62686 6.17326 9.01186 6.20164C9.71799 6.25326 9.77224 6.64639 9.96311 6.97001C10.0836 7.17401 10.2002 7.37501 10.2002 7.98339C10.2002 8.59176 10.0829 8.79264 9.96324 8.99664C9.77224 9.31951 9.53661 9.53101 8.83049 9.58326C8.44549 9.61176 8.05299 9.66776 7.68524 9.77914C6.90924 10.0138 6.45736 10.6908 6.49299 11.4853C6.52424 12.181 7.08761 12.8588 7.76474 13.0143C8.56661 13.1988 9.36486 12.876 9.70599 12.1578C9.88511 11.7811 9.98324 11.3544 10.0531 10.939C10.1787 10.1946 10.4731 9.90539 11.2111 9.82464C11.689 9.77239 12.1836 9.82464 12.6315 9.56989C13.1046 9.22364 13.5275 8.70364 13.5275 7.98339C13.5275 7.26289 13.0719 6.50764 12.38 6.28939Z" fill="#F44250"/>
<path d="M4.8 9.6717C3.86875 9.6717 3.109 8.90945 3.109 7.97483C3.109 7.0402 3.86863 6.27808 4.79988 6.27808C5.73113 6.27808 6.49088 7.04033 6.49088 7.97483C6.49088 8.90858 5.7305 9.6717 4.79988 9.6717H4.8ZM1.685 13.1201C0.755005 13.1178 -0.002245 12.3526 5.00109e-06 11.4172C0.002255 10.4835 0.76488 9.72345 1.69688 9.72645C2.62738 9.7287 3.38476 10.494 3.38188 11.4292C3.37963 12.3622 2.61688 13.1223 1.685 13.1201ZM14.249 13.1201C13.3163 13.1252 12.5508 12.3682 12.5454 11.436C12.5403 10.5 13.2946 9.7317 14.2236 9.72645C15.1564 9.7212 15.922 10.4782 15.9273 11.4105C15.9324 12.3457 15.178 13.1148 14.249 13.1201Z" fill="#121212"/>
</svg>
