<svg width="16" height="16" viewBox="0 0 16 16" fill="none" xmlns="http://www.w3.org/2000/svg">
<g clip-path="url(#clip0_176_8)">
<path d="M11.0862 11.0138C9.96124 13.3138 7.99124 14.8613 5.38499 15.37C4.98539 15.468 4.57516 15.5158 4.16374 15.5125C2.66374 15.5125 1.28874 14.8875 0.621242 13.8638C-0.275008 12.5 -0.580008 9.60878 2.37499 7.47003C2.43499 7.79628 2.55749 8.24378 2.63874 8.50878C2.05866 8.93974 1.58384 9.49662 1.24999 10.1375C0.699992 11.2175 0.761242 12.2963 1.41249 13.2938C1.86249 13.9663 2.57499 14.375 3.49124 14.5C4.63566 14.6449 5.79666 14.4262 6.80999 13.875C8.39874 13.04 9.45749 12.0425 10.15 10.6788C9.95418 10.4764 9.83828 10.21 9.82374 9.92878C9.81328 9.62701 9.92296 9.33342 10.1287 9.11243C10.3345 8.89144 10.6195 8.7611 10.9212 8.75003H10.9637C11.2572 8.74856 11.5401 8.85997 11.7537 9.06121C11.9673 9.26246 12.0955 9.53813 12.1115 9.83119C12.1276 10.1242 12.0304 10.4123 11.84 10.6356C11.6496 10.859 11.3806 11.0007 11.0887 11.0313L11.0862 11.0138ZM14.67 8.48878C16.1962 10.2188 16.2375 12.255 15.6475 13.4363C15.0975 14.515 13.6475 15.595 11.6975 15.595C10.7872 15.5764 9.89173 15.361 9.07249 14.9638C9.35874 14.76 9.76499 14.4338 9.98874 14.23C10.6204 14.5038 11.3003 14.6492 11.9887 14.6575C13.2512 14.6575 14.2075 14.0675 14.7775 12.9888C15.1437 12.2763 15.165 11.4413 14.8187 10.5863C14.394 9.51047 13.6379 8.5977 12.66 7.98003C11.3771 7.11521 9.86468 6.65418 8.31749 6.65628H7.95124C7.86584 6.85356 7.7269 7.02299 7.55017 7.14538C7.37343 7.26777 7.16596 7.33823 6.95124 7.34878H6.91249C6.61551 7.34513 6.33165 7.22585 6.12121 7.01627C5.91076 6.8067 5.7903 6.52333 5.78542 6.22637C5.78054 5.92941 5.89162 5.64224 6.09506 5.42586C6.29851 5.20948 6.57829 5.08094 6.87499 5.06753H6.91624C7.123 5.06768 7.32572 5.12481 7.50213 5.23265C7.67854 5.34048 7.82182 5.49484 7.91624 5.67878H8.24249C10.8425 5.67878 13.125 6.67628 14.67 8.48878ZM4.32624 11.3638C4.30473 11.1562 4.35503 10.9475 4.46874 10.7725C3.32874 8.79753 2.71874 6.29378 3.65499 3.68753C4.32624 1.72878 6.01624 0.405029 7.84874 0.405029C9.80374 0.405029 11.84 2.11628 12.0837 5.41378C11.7787 5.31253 11.3337 5.16378 11.0662 5.10878C11 4.03003 10.0887 1.34253 7.92999 1.38253C7.15624 1.40378 6.01624 1.77003 5.42999 2.52253C4.7049 3.42085 4.28305 4.5258 4.22499 5.67878C4.08749 7.25975 4.45842 8.84333 5.28374 10.1988C5.3293 10.1821 5.37786 10.1753 5.42624 10.1788H5.46624C5.76859 10.1733 6.06073 10.2882 6.27838 10.4981C6.49604 10.708 6.6214 10.9958 6.62687 11.2982C6.63234 11.6005 6.51748 11.8926 6.30755 12.1103C6.09763 12.328 5.80984 12.4533 5.50749 12.4588H5.46624C5.17128 12.4577 4.8881 12.3429 4.67572 12.1382C4.46335 11.9335 4.33815 11.6548 4.32624 11.36V11.3638Z" fill="#764ABC"/>
</g>
<defs>
<clipPath id="clip0_176_8">
<rect width="16" height="16" fill="white"/>
</clipPath>
</defs>
</svg>
