<svg width="32" height="24" viewBox="0 0 32 24" fill="none" xmlns="http://www.w3.org/2000/svg">
<g clip-path="url(#clip0_180_261)">
<path d="M27.5351 13.8141C26.4219 13.8199 25.4542 14.088 24.6441 14.4844C24.3467 13.8956 24.0495 13.3711 23.9971 12.9864C23.9387 12.5376 23.8689 12.2636 23.9387 11.7274C24.0087 11.1911 24.3235 10.4275 24.3176 10.3693C24.3117 10.311 24.2476 10.037 23.6065 10.0313C22.9654 10.0255 22.4116 10.1536 22.3475 10.3226C22.2834 10.4916 22.161 10.8764 22.0794 11.2726C21.9686 11.8556 20.7971 13.9364 20.1269 15.0264C19.9111 14.601 19.7246 14.2279 19.6837 13.9306C19.6255 13.4819 19.5555 13.2079 19.6255 12.6716C19.6955 12.1354 20.0102 11.3719 20.0044 11.3135C19.9985 11.2553 19.9344 10.9813 19.2932 10.9755C18.652 10.9696 18.0982 11.0979 18.0342 11.2669C17.9701 11.436 17.9001 11.8323 17.7661 12.217C17.6321 12.6018 16.0757 16.0758 15.6677 16.9733C15.5029 17.3365 15.3299 17.6961 15.149 18.0516C15.149 18.0516 15.1431 18.0691 15.1256 18.0983C15.0688 18.2097 15.0105 18.3205 14.9509 18.4305V18.4363C14.8634 18.5938 14.7701 18.7394 14.7235 18.7394C14.6885 18.7394 14.6244 18.3198 14.7351 17.7485C14.9682 16.542 15.522 14.6651 15.5162 14.601C15.5162 14.566 15.6211 14.2396 15.1549 14.0705C14.7001 13.9015 14.537 14.1813 14.4961 14.1813C14.4552 14.1813 14.4261 14.2804 14.4261 14.2804C14.4261 14.2804 14.9334 12.1704 13.4586 12.1704C12.5377 12.1704 11.267 13.1788 10.6375 14.088C9.92189 14.4774 9.20689 14.868 8.4925 15.2596C8.14875 15.452 7.79312 15.6444 7.46087 15.825C7.4375 15.8018 7.41425 15.7725 7.39087 15.7493C5.60725 13.8433 2.30825 12.4968 2.44812 9.938C2.50062 9.00538 2.82112 6.55725 8.784 3.58463C13.6917 1.16563 17.5971 1.83588 18.2732 3.32225C19.2407 5.444 16.1807 9.38425 11.1096 9.95538C9.1745 10.1711 8.16025 9.425 7.90387 9.14525C7.63575 8.85375 7.59487 8.83625 7.49575 8.89463C7.33262 8.98213 7.4375 9.24438 7.49575 9.39588C7.64737 9.79213 8.271 10.4916 9.326 10.8356C10.2586 11.1386 12.526 11.3078 15.2714 10.2469C18.3431 9.05775 20.7446 5.75288 20.0394 2.98425C19.334 0.174753 14.671 -0.751997 10.2586 0.815879C7.63575 1.74863 4.79125 3.21738 2.74537 5.12925C0.314746 7.40238 -0.070004 9.37838 0.087371 10.2061C0.652871 13.1438 4.70387 15.0556 6.32425 16.472C6.24262 16.5186 6.16675 16.5595 6.10275 16.5945C5.2925 16.9966 2.20325 18.6111 1.43387 20.319C0.559621 22.2541 1.57387 23.6415 2.24412 23.8279C4.325 24.405 6.46412 23.3675 7.61237 21.6538C8.76062 19.9401 8.62075 17.7135 8.09037 16.6935C8.0845 16.6819 8.07875 16.6701 8.067 16.6585C8.27687 16.5361 8.4925 16.4079 8.70237 16.2855C9.08811 16.0575 9.47874 15.8378 9.874 15.6268C9.67575 16.1689 9.53 16.8159 9.46012 17.7485C9.37262 18.8444 9.82137 20.2665 10.4101 20.826C10.6725 21.071 10.9814 21.0768 11.1796 21.0768C11.8674 21.0768 12.1764 20.5055 12.5202 19.8294C12.9399 19.0018 13.3187 18.04 13.3187 18.04C13.3187 18.04 12.8466 20.6396 14.129 20.6396C14.5952 20.6396 15.0674 20.0334 15.2772 19.7245V19.7303C15.2772 19.7303 15.2889 19.7128 15.3122 19.672C15.3589 19.5963 15.388 19.5495 15.388 19.5495V19.538C15.5745 19.2115 15.9942 18.4713 16.6179 17.2414C17.4222 15.656 18.1975 13.6743 18.1975 13.6743C18.1975 13.6743 18.2675 14.158 18.5064 14.9624C18.6464 15.4345 18.9376 15.9533 19.1709 16.4545C18.9844 16.7169 18.8677 16.8625 18.8677 16.8625L18.8736 16.8684C18.722 17.0665 18.5589 17.2821 18.3781 17.4921C17.7427 18.2498 16.9851 19.1184 16.8801 19.3689C16.7576 19.6661 16.7869 19.8819 17.0201 20.0568C17.1891 20.185 17.4921 20.2024 17.8011 20.185C18.3724 20.1441 18.7745 20.0043 18.9726 19.9169C19.2816 19.8061 19.643 19.637 19.981 19.3864C20.6047 18.9259 20.9835 18.2673 20.9486 17.3989C20.9311 16.9209 20.7737 16.4429 20.5814 15.994C20.6397 15.9125 20.6921 15.8309 20.7505 15.7493C21.7355 14.3095 22.4991 12.7299 22.4991 12.7299C22.4991 12.7299 22.5691 13.2136 22.808 14.0181C22.9246 14.4261 23.1636 14.8691 23.3734 15.3004C22.4466 16.0524 21.8754 16.9266 21.6714 17.4979C21.3042 18.5588 21.5897 19.0366 22.1319 19.1474C22.3766 19.1999 22.7264 19.0833 22.9829 18.9725C23.3092 18.8676 23.694 18.687 24.0612 18.4188C24.685 17.9584 25.2852 17.3171 25.2502 16.4488C25.2327 16.0524 25.1279 15.6618 24.9821 15.2829C25.769 14.9566 26.7832 14.7759 28.0771 14.9274C30.8517 15.2538 31.3996 16.9849 31.2946 17.7136C31.1897 18.4421 30.6069 18.8385 30.4146 18.9609C30.2221 19.0834 30.1581 19.1241 30.1756 19.2115C30.1989 19.3398 30.2921 19.334 30.4554 19.3106C30.6827 19.2699 31.9126 18.7219 31.965 17.3813C32.0525 15.6676 30.4204 13.7966 27.5351 13.8141ZM6.13187 21.0301C5.21087 22.0326 3.92862 22.4115 3.37487 22.091C2.78037 21.747 3.0135 20.2665 4.14425 19.2058C4.832 18.5588 5.718 17.9583 6.30675 17.5911C6.44075 17.5095 6.639 17.393 6.878 17.2473C6.91875 17.2239 6.94212 17.2123 6.94212 17.2123L7.082 17.1248C7.49575 18.6403 7.0995 19.9751 6.13187 21.0301ZM12.835 16.472C12.5144 17.2531 11.8441 19.2524 11.4361 19.1416C11.0864 19.0484 10.8706 17.5329 11.3661 16.0349C11.6167 15.2829 12.1471 14.3853 12.4561 14.0356C12.9574 13.476 13.5111 13.2894 13.6451 13.5169C13.8142 13.8141 13.0331 15.9824 12.835 16.472ZM18.3665 19.1183C18.2324 19.1883 18.1042 19.2349 18.0459 19.1999C18.0051 19.1765 18.1042 19.0833 18.1042 19.0833C18.1042 19.0833 18.7979 18.3373 19.0717 17.9991C19.2292 17.801 19.4156 17.5679 19.6139 17.3055V17.3813C19.6139 18.2731 18.7511 18.8735 18.3664 19.1183M22.633 18.1449C22.5339 18.0749 22.5514 17.8418 22.8836 17.1131C23.0119 16.8275 23.3149 16.3496 23.8337 15.8891C23.892 16.0756 23.9329 16.2564 23.927 16.4254C23.9211 17.5504 23.1169 17.97 22.633 18.1449Z" fill="#CD6799"/>
</g>
<defs>
<clipPath id="clip0_180_261">
<rect width="32" height="24" fill="white"/>
</clipPath>
</defs>
</svg>
