<svg width="24" height="24" viewBox="0 0 24 24" fill="none" xmlns="http://www.w3.org/2000/svg">
<g clip-path="url(#clip0_180_259)">
<path d="M22.219 11.7839L11.784 22.2189C11.6042 22.4177 11.5076 22.6781 11.5143 22.9461C11.521 23.2141 11.6305 23.4693 11.8201 23.6589C12.0096 23.8484 12.2648 23.9579 12.5328 23.9646C12.8008 23.9713 13.0612 23.8748 13.26 23.6949L23.695 13.2599C23.8748 13.0611 23.9714 12.8008 23.9647 12.5327C23.958 12.2647 23.8485 12.0096 23.6589 11.82C23.4694 11.6304 23.2142 11.521 22.9462 11.5142C22.6782 11.5075 22.4178 11.6041 22.219 11.7839ZM20.132 0.304919L0.304996 20.1319C0.125153 20.3307 0.0286034 20.5911 0.0353164 20.8591C0.0420294 21.1271 0.151491 21.3823 0.341062 21.5719C0.530633 21.7614 0.785812 21.8709 1.05382 21.8776C1.32183 21.8843 1.58217 21.7878 1.781 21.6079L21.608 1.78092C21.7878 1.5821 21.8844 1.32176 21.8777 1.05375C21.871 0.785736 21.7615 0.530557 21.5719 0.340986C21.3824 0.151415 21.1272 0.0419531 20.8592 0.0352401C20.5912 0.0285271 20.3308 0.125076 20.132 0.304919Z" fill="black"/>
</g>
<defs>
<clipPath id="clip0_180_259">
<rect width="24" height="24" fill="white"/>
</clipPath>
</defs>
</svg>
