<svg width="16" height="16" viewBox="0 0 16 16" fill="none" xmlns="http://www.w3.org/2000/svg">
<g clip-path="url(#clip0_180_257)">
<path d="M8.0005 3.2002C5.86713 3.2002 4.53425 4.26645 4.0005 6.39982C4.80025 5.33345 5.73388 4.93357 6.80025 5.2002C7.40913 5.35195 7.84425 5.79345 8.32613 6.2827C9.11038 7.07857 10.0181 7.99995 12.0005 7.99995C14.1338 7.99995 15.4668 6.93357 16.0005 4.7997C15.2005 5.86661 14.2672 6.2667 13.2006 5.99995C12.5919 5.84807 12.1573 5.4067 11.6748 4.91745C10.891 4.12157 9.9835 3.2002 8.0005 3.2002ZM4.0005 7.99995C1.86725 7.99995 0.534254 9.06632 0.00050354 11.2002C0.80042 10.1333 1.73367 9.7332 2.80025 9.99995C3.40913 10.1518 3.84425 10.5932 4.32613 11.0824C5.11038 11.8783 6.01813 12.7997 8.0005 12.7997C10.1338 12.7997 11.4668 11.7334 12.0005 9.60007C11.2005 10.6665 10.2672 11.0664 9.20063 10.7997C8.59188 10.6479 8.15725 10.2064 7.67475 9.7172C6.891 8.92132 5.9835 7.99995 4.0005 7.99995Z" fill="#38BDF8"/>
</g>
<defs>
<clipPath id="clip0_180_257">
<rect width="16" height="16" fill="white"/>
</clipPath>
</defs>
</svg>
